<?xml version="1.0" standalone="no"?><!DOCTYPE svg PUBLIC "-//W3C//DTD SVG 1.1//EN" "http://www.w3.org/Graphics/SVG/1.1/DTD/svg11.dtd"><svg t="1748249798372" class="icon" viewBox="0 0 1024 1024" version="1.1" xmlns="http://www.w3.org/2000/svg" p-id="12316" xmlns:xlink="http://www.w3.org/1999/xlink" width="64" height="64"><path d="M480 800H192a32 32 0 0 1-32-32V386.912a32 32 0 0 1 32-32h288a32 32 0 0 1 32 32V768a32 32 0 0 1-32 32z m-256-64h224v-317.088H224V736zM704 288H192a32 32 0 1 1 0-64h512a32 32 0 1 1 0 64zM704 416h-96a32 32 0 1 1 0-64h96a32 32 0 1 1 0 64zM704 544h-96a32 32 0 1 1 0-64h96a32 32 0 1 1 0 64zM704 672h-96a32 32 0 1 1 0-64h96a32 32 0 1 1 0 64zM704 800h-96a32 32 0 1 1 0-64h96a32 32 0 1 1 0 64z" p-id="12317" fill="#CBCBCB"></path><path d="M896 928H128c-52.928 0-96-43.072-96-96V128a32 32 0 0 1 32-32h768a32 32 0 0 1 32 32v160h96a32 32 0 0 1 32 32v512c0 52.928-43.072 96-96 96zM96 160v672c0 17.664 14.368 32 32 32h768c17.632 0 32-14.336 32-32V352h-96a32 32 0 0 1-32-32V160H96z" p-id="12318" fill="#CBCBCB"></path><path d="M832 832a32 32 0 0 1-32-32V286.4a32 32 0 1 1 64 0V800a32 32 0 0 1-32 32z" p-id="12319" fill="#CBCBCB"></path></svg>